<?xml version="1.0" encoding="iso-8859-1"?>
<!-- Generator: Adobe Illustrator 19.0.0, SVG Export Plug-In . SVG Version: 6.00 Build 0)  -->
<svg version="1.1" id="Capa_1" xmlns="http://www.w3.org/2000/svg" xmlns:xlink="http://www.w3.org/1999/xlink" x="0px" y="0px"
	 viewBox="0 0 512 512" style="enable-background:new 0 0 512 512;" xml:space="preserve">
<path style="fill:#EAEAE4;" d="M343.382,226.361h1.349c18.046,0,36.092-1.061,53.999-3.331l0.298-0.04
	c16.211-71.311,16.211-142.601,0-213.902c-95.345-12.117-190.69-12.117-286.055,0c-16.202,71.301-16.202,142.592,0,213.902
	c0.099,0.009,0.199,0.02,0.298,0.04c17.907,2.271,35.953,3.331,54.008,3.331h1.349"/>
<path style="fill:#D3D3CF;" d="M152.923,4.756c-13.218,1.213-26.437,2.651-39.656,4.331c-16.201,71.301-16.201,142.592,0,213.902
	c0.099,0.01,0.199,0.021,0.298,0.04c12.945,1.642,25.963,2.641,39.006,3.075C138.184,152.312,138.307,78.538,152.923,4.756z"/>
<polyline style="fill:#EAEAE4;" points="458.237,512 458.237,302.381 385.102,302.381 126.898,302.381 53.763,302.381 53.763,512 
	"/>
<g>
	<circle style="fill:#D3D3CF;" cx="228.215" cy="122.921" r="96.778"/>
	<polyline style="fill:#D3D3CF;" points="151.177,512 151.177,302.381 133.564,302.381 71.378,302.381 53.763,302.381 53.763,512 	
		"/>
</g>
<path style="fill:#F9DCA2;" d="M385.141,304.756v148.447c0,9.382-3.803,17.888-9.968,24.043c-6.144,6.155-14.639,9.968-24.043,9.968
	c-18.777,0-34.011-15.234-34.011-34.011V302.384H194.877v150.819c0,9.382-3.803,17.888-9.968,24.043
	c-6.144,6.155-14.639,9.968-24.043,9.968c-18.777,0-34.011-15.234-34.011-34.011V304.756c0-19.32,5.81-37.282,15.757-52.244h0.01
	c11.274-16.938,27.857-30.041,47.375-36.895c7.847-2.76,16.185-4.505,24.837-5.089h82.327c8.652,0.585,16.99,2.329,24.847,5.089
	c19.519,6.854,36.101,19.957,47.365,36.895C379.341,267.475,385.141,285.436,385.141,304.756z"/>
<g>
	<path style="fill:#E5C691;" d="M339.105,453.202V306.783c0-12.118-9.824-21.942-21.942-21.942l0,0v167.681
		c0,19.008,15.554,34.99,34.56,34.685c3.645-0.059,7.145-0.698,10.423-1.815C348.748,480.827,339.105,468.143,339.105,453.202z"/>
	<path style="fill:#E5C691;" d="M148.84,453.202V304.76c0-19.324,5.8-37.282,15.755-52.253h0.009
		c15.805-23.757,42.061-39.948,72.213-41.982h-21.932h-0.009c-30.152,2.032-56.408,18.224-72.213,41.982h-0.01
		c-9.955,14.971-15.755,32.929-15.755,52.253v148.441c0,18.78,15.23,34.01,34.009,34.01c3.843,0,7.531-0.646,10.973-1.819
		C158.484,480.827,148.84,468.143,148.84,453.202z"/>
</g>
<path style="fill:#D1B182;" d="M322.008,215.617c-17.293,16.144-40.5,26.017-66.006,26.017s-48.713-9.873-66.006-26.017
	c7.847-2.76,16.185-4.505,24.837-5.089h82.327C305.813,211.113,314.151,212.858,322.008,215.617z"/>
<circle style="fill:#F9DCA2;" cx="255.998" cy="122.921" r="96.778"/>
<path style="fill:#E5C691;" d="M203.18,122.923c0-45.873,31.917-84.289,74.756-94.256c-7.049-1.635-14.387-2.518-21.934-2.518
	c-53.447,0-96.775,43.327-96.775,96.775s43.327,96.775,96.775,96.775c7.547,0,14.884-0.883,21.934-2.518
	C235.098,207.212,203.18,168.796,203.18,122.923z"/>
<path style="fill:#455256;" d="M351.662,108.161l-0.021-0.011c-19.707-3.332-37.365-12.622-51.095-25.945
	c-13.343,6.917-28.473,10.857-44.544,10.857c-15.851,0-30.782-3.835-43.979-10.585c-0.188-0.084-0.366-0.178-0.554-0.273
	c-13.74,13.322-31.409,22.612-51.116,25.945l-0.01,0.011c7.116-46.445,47.229-82.013,95.66-82.013
	c7.461,0,14.733,0.846,21.713,2.445C316.021,37.369,345.644,68.872,351.662,108.161z"/>
<path style="fill:#2F3C3F;" d="M277.935,28.665c-29.361,6.834-53.582,27.02-65.912,53.812c-0.188-0.084-0.366-0.178-0.554-0.273
	c-13.74,13.322-31.409,22.612-51.116,25.945l-0.01,0.011c7.116-46.445,47.229-82.013,95.66-82.013
	c7.461,0,14.733,0.846,21.713,2.445C277.789,28.624,277.862,28.644,277.935,28.665z"/>
<path style="fill:#455256;" d="M224.606,162.271c0,17.34,14.057,31.397,31.397,31.397s31.397-14.057,31.397-31.397H224.606z"/>
<g>
	<path style="fill:#2F3C3F;" d="M232.027,141.566c-4.328,0-7.837-3.508-7.837-7.837v-15.984c0-4.329,3.509-7.837,7.837-7.837
		c4.328,0,7.837,3.508,7.837,7.837v15.984C239.863,138.057,236.355,141.566,232.027,141.566z"/>
	<path style="fill:#2F3C3F;" d="M279.978,141.566c-4.328,0-7.837-3.508-7.837-7.837v-15.984c0-4.329,3.509-7.837,7.837-7.837
		c4.328,0,7.837,3.508,7.837,7.837v15.984C287.814,138.057,284.306,141.566,279.978,141.566z"/>
</g>
<g>
</g>
<g>
</g>
<g>
</g>
<g>
</g>
<g>
</g>
<g>
</g>
<g>
</g>
<g>
</g>
<g>
</g>
<g>
</g>
<g>
</g>
<g>
</g>
<g>
</g>
<g>
</g>
<g>
</g>
</svg>
