<svg height="511pt" viewBox="1 -42 511.99948 511" width="511pt" xmlns="http://www.w3.org/2000/svg"><path d="m503.609375 378.671875c11.1875 11.183594 11.1875 29.332031 0 40.519531-11.183594 11.183594-29.324219 11.183594-40.519531 0-.292969-.292968-.585938-.605468-.886719-.929687-14.144531-15.34375-34.441406-23.527344-55.1875-21.171875-58.441406 6.640625-116.882813 9.425781-175.324219 8.351562h-.007812c-48.789063-.886718-97.574219-4.472656-146.363282-10.726562-11.695312-1.503906-23.183593 4.179687-29.023437 14.425781-2.28125 4.003906-4.835937 7.496094-7.390625 10.050781-11.183594 11.183594-29.324219 11.183594-40.507812 0-11.199219-11.1875-11.199219-29.335937 0-40.519531 2.300781-2.304687 5.378906-4.609375 8.902343-6.714844 10.339844-6.183593 15.707031-18.242187 13.5625-30.105469-15.441406-85.203124-15.441406-170.414062 0-255.625 2.144531-11.851562-3.222656-23.914062-13.5625-30.09375-3.523437-2.117187-6.601562-4.410156-8.902343-6.714843-11.199219-11.195313-11.199219-29.335938 0-40.519531 11.183593-11.199219 29.324218-11.199219 40.507812 0 2.554688 2.542968 5.109375 6.035156 7.390625 10.046874 5.839844 10.25 17.328125 15.929688 29.023437 14.429688 25.15625-3.234375 50.300782-5.746094 75.445313-7.546875 88.640625-6.359375 177.269531-3.839844 265.910156 7.546875 11.707031 1.5 23.183594-4.179688 29.03125-14.429688 2.285157-4.003906 4.839844-7.503906 7.382813-10.046874 11.195312-11.199219 29.335937-11.199219 40.519531 0 11.1875 11.183593 11.1875 29.324218 0 40.519531-2.304687 2.304687-5.378906 4.597656-8.902344 6.714843-10.339843 6.179688-15.71875 18.242188-13.574219 30.09375 15.453126 85.210938 15.453126 170.421876 0 255.625-2.144531 11.863282 3.234376 23.921876 13.574219 30.105469 3.523438 2.105469 6.597657 4.410157 8.902344 6.714844zm0 0" fill="#87cdd8"/><path d="m231.683594 405.441406c-48.789063-.886718-97.574219-4.472656-146.363282-10.726562-11.695312-1.503906-23.183593 4.179687-29.023437 14.425781-2.28125 4.003906-4.835937 7.496094-7.390625 10.050781-11.183594 11.183594-29.324219 11.183594-40.507812 0-11.199219-11.1875-11.199219-29.335937 0-40.519531 2.300781-2.304687 5.378906-4.609375 8.902343-6.714844 10.339844-6.183593 15.707031-18.242187 13.5625-30.105469-15.441406-85.203124-15.441406-170.414062 0-255.625 2.144531-11.851562-3.222656-23.914062-13.5625-30.09375-3.523437-2.117187-6.601562-4.410156-8.902343-6.714843-11.199219-11.195313-11.199219-29.335938 0-40.519531 11.183593-11.199219 29.324218-11.199219 40.507812 0 2.554688 2.542968 5.109375 6.035156 7.390625 10.046874 5.839844 10.25 17.328125 15.929688 29.023437 14.429688 25.15625-3.234375 50.300782-5.746094 75.445313-7.546875-75.445313 7.546875-104.320313 334.214844 70.917969 379.613281zm0 0" fill="#5bb0b7"/><path d="m86.753906 211.273438c0 38.625-4.140625 75.777343-11.78125 110.511718h-.011718c-17.90625-34.742187-27.601563-71.898437-27.601563-110.511718 0-38.621094 9.695313-75.773438 27.601563-110.511719h.011718c7.640625 34.746093 11.78125 71.898437 11.78125 110.511719zm0 0" fill="#e5e5e5"/><path d="m242.984375 147.527344c-11.777344-9.128906-5.316406-28.125 9.585937-28.171875h.535157c67.519531 0 122.261719 38.925781 122.261719 86.953125 0 48.015625-54.742188 86.941406-122.261719 86.941406-.179688 0-.359375 0-.535157 0-14.902343-.046875-21.363281-19.046875-9.585937-28.171875 19.972656-15.472656 32.167969-36.113281 32.167969-58.769531 0-22.667969-12.195313-43.308594-32.167969-58.78125zm0 0" fill="#5bb0b7"/></svg>