<svg height="512pt" viewBox="0 -131 512 512" width="512pt" xmlns="http://www.w3.org/2000/svg"><path d="m162.699219 83.0625h186.59375v84.425781h-186.59375zm0 0" fill="#5c5e71"/><path d="m162.699219 132.082031h186.59375v35.40625h-186.59375zm0 0" fill="#3b3d4d"/><path d="m92.921875 46.464844 11.351563 93.136718-11.351563 64.488282c0 12.832031-5.203125 24.441406-13.613281 32.851562-8.402344 8.402344-20.019532 13.605469-32.851563 13.605469-25.652343 0-46.457031-20.804687-46.457031-46.457031v-157.625c0-17.164063 9.308594-32.148438 23.144531-40.195313 6.855469-3.992187 14.816407-6.269531 23.3125-6.269531 25.660157 0 46.464844 20.804688 46.464844 46.464844zm0 0" fill="#cbcbcb"/><path d="m92.921875 46.464844v135.179687c-6.84375 3.992188-14.816406 6.269531-23.3125 6.269531-25.660156 0-46.464844-20.804687-46.464844-46.464843v-135.179688c6.855469-3.992187 14.816407-6.269531 23.3125-6.269531 25.660157 0 46.464844 20.804688 46.464844 46.464844zm0 0" fill="#e5e5e5"/><path d="m185.855469 46.46875v157.625c0 12.832031-5.203125 24.441406-13.613281 32.851562-8.402344 8.398438-20.023438 13.605469-32.855469 13.605469-25.648438 0-46.453125-20.804687-46.453125-46.457031v-157.625c0-17.167969 9.308594-32.152344 23.144531-40.195312 6.851563-3.992188 14.816406-6.26953175 23.308594-6.26953175 25.664062 0 46.46875 20.80468775 46.46875 46.46484375zm0 0" fill="#cbcbcb"/><path d="m185.855469 46.46875v135.179688c-6.84375 3.992187-14.816407 6.269531-23.3125 6.269531-25.660157 0-46.464844-20.804688-46.464844-46.464844v-135.179687c6.851563-3.992188 14.816406-6.26953175 23.308594-6.26953175 25.664062 0 46.46875 20.80468775 46.46875 46.46484375zm0 0" fill="#e5e5e5"/><path d="m419.074219 46.46875 8.824219 97.671875-8.824219 59.953125c0 12.832031-5.203125 24.441406-13.617188 32.851562-8.398437 8.398438-20.019531 13.605469-32.851562 13.605469-25.652344 0-46.457031-20.804687-46.457031-46.457031v-157.625c0-17.167969 9.3125-32.152344 23.144531-40.195312 6.855469-3.992188 14.816406-6.26953175 23.3125-6.26953175 25.664062 0 46.46875 20.80468775 46.46875 46.46484375zm0 0" fill="#cbcbcb"/><path d="m419.074219 46.46875v135.179688c-6.84375 3.992187-14.816407 6.269531-23.3125 6.269531-25.664063 0-46.46875-20.804688-46.46875-46.464844v-135.179687c6.855469-3.992188 14.816406-6.26953175 23.3125-6.26953175 25.664062 0 46.46875 20.80468775 46.46875 46.46484375zm0 0" fill="#e5e5e5"/><path d="m512 46.46875v157.625c0 12.832031-5.203125 24.441406-13.613281 32.851562-8.402344 8.398438-20.023438 13.605469-32.851563 13.605469-25.652344 0-46.457031-20.804687-46.457031-46.457031v-157.625c0-17.167969 9.308594-32.152344 23.144531-40.195312 6.851563-3.992188 14.816406-6.26953175 23.3125-6.26953175 25.660156 0 46.464844 20.80468775 46.464844 46.46484375zm0 0" fill="#cbcbcb"/><path d="m512 46.46875v135.179688c-6.84375 3.992187-14.816406 6.269531-23.3125 6.269531-25.660156 0-46.464844-20.804688-46.464844-46.464844v-135.179687c6.851563-3.992188 14.816406-6.26953175 23.3125-6.26953175 25.660156 0 46.464844 20.80468775 46.464844 46.46484375zm0 0" fill="#e5e5e5"/></svg>