<?xml version="1.0" encoding="iso-8859-1"?>
<!-- Generator: Adobe Illustrator 19.0.0, SVG Export Plug-In . SVG Version: 6.00 Build 0)  -->
<svg version="1.1" id="Capa_1" xmlns="http://www.w3.org/2000/svg" xmlns:xlink="http://www.w3.org/1999/xlink" x="0px" y="0px"
	 viewBox="0 0 512 512" style="enable-background:new 0 0 512 512;" xml:space="preserve">
<path style="fill:#F9DCA2;" d="M333.938,289.218h2.923h113.503c16.681,0,30.208-13.516,30.208-30.198
	c0-8.34-3.384-15.89-8.846-21.362c-5.472-5.462-13.022-8.846-21.362-8.846H336.86v-79.161c0-18.659,12.834-34.879,30.989-39.175
	L512,76.366v-5.528c0-33.186-30.439-58.021-62.944-51.362L266.522,56.861c-6.944,1.428-14.099,1.428-21.043,0L62.944,19.478
	C30.439,12.819,0,37.653,0,70.839v5.528l144.338,34.11c18.165,4.297,30.999,20.516,30.999,39.186v128.018v11.538V463.4
	c0,16.681,13.527,30.208,30.208,30.208c8.34,0,15.89-3.384,21.351-8.846c5.462-5.472,8.846-13.022,8.846-21.362v-82.503"/>
<g>
	<path style="fill:#E5C691;" d="M175.337,129.287c0-18.67-12.834-34.889-30.999-39.186L1.995,56.463C0.705,61.013,0,65.828,0,70.839
		v5.528l144.338,34.11c18.165,4.297,30.999,20.517,30.999,39.186L175.337,129.287L175.337,129.287z"/>
	<path style="fill:#E5C691;" d="M367.849,90.101c-18.154,4.297-30.989,20.517-30.989,39.175v20.374
		c0-18.659,12.834-34.879,30.989-39.175L512,76.366v-5.528c0-5.01-0.704-9.825-1.995-14.376L367.849,90.101z"/>
	<path style="fill:#E5C691;" d="M450.364,265.709H336.86h-2.924l-98.195,91.679v23.509l98.195-91.679h2.924h113.503
		c16.681,0,30.208-13.516,30.208-30.197c0-4.169-0.845-8.141-2.374-11.754C473.611,258.105,462.875,265.709,450.364,265.709z"/>
	<path style="fill:#E5C691;" d="M201.98,463.401V289.218V277.68V149.661c0-18.67-12.834-34.889-30.999-39.186l-23.119,1.007
		c16.277,5.445,27.476,20.741,27.476,38.178v128.018v11.538V463.4c0,16.681,13.527,30.208,30.208,30.208
		c4.783,0,9.302-1.117,13.32-3.096C208.865,485.588,201.98,475.299,201.98,463.401z"/>
</g>
<path style="fill:#455256;" d="M370.682,109.725v0.01l-2.853,0.669c-18.15,4.295-30.981,20.511-30.981,39.173v12.978
	l-134.969-15.611l-26.561-3.072l-0.408,0.063c-2.1-14.963-12.487-27.585-26.896-32.465c-1.202-0.408-2.435-0.763-3.688-1.066
	l-3.166-0.742v-0.01l26.843-68.723l77.458,15.862c6.949,1.421,14.096,1.421,21.044,0l77.322-15.841l26.833,68.712L370.682,109.725z"
	/>
<path style="fill:#7FDD36;" d="M358.185,289.144h-81.408l4.702,49.8H175.317V149.587c0-1.912-0.136-3.803-0.408-5.653l0.408-0.063
	l26.561,3.072l134.969,15.611v66.184h21.337V289.144z"/>
<path style="fill:#70C129;" d="M358.185,265.709H318.38c-12.984,0-23.509,10.525-23.509,23.509l0,0h63.312v-23.509H358.185z"/>
<circle style="fill:#F9DCA2;" cx="288.538" cy="339.018" r="67.385"/>
<path style="fill:#313C3F;" d="M201.878,146.945l-26.561-3.072l-0.408,0.063c-2.1-14.963-12.487-27.585-26.896-32.465l22.967-0.993
	C188.253,114.562,200.719,129.431,201.878,146.945z"/>
<path style="fill:#E5C691;" d="M264.126,339.02c0-29.701,19.223-54.896,45.9-63.868c-6.75-2.271-13.97-3.519-21.486-3.519
	c-37.217,0-67.388,30.17-67.388,67.388s30.17,67.388,67.388,67.388c7.516,0,14.736-1.249,21.486-3.519
	C283.35,393.916,264.126,368.721,264.126,339.02z"/>
<path style="fill:#70C129;" d="M201.983,149.66v189.283h-26.645v-61.262l-0.021-0.031V149.587c0-1.912-0.136-3.803-0.408-5.653
	l0.408-0.063l26.561,3.072C201.952,147.843,201.983,148.752,201.983,149.66z"/>
<path style="fill:#D67C05;" d="M355.928,339.017c0,29.759-19.278,55.003-46.038,63.927c-0.01,0.01-0.021,0.01-0.021,0.01
	c-6.698,2.236-13.866,3.448-21.326,3.448c-29.895,0-55.244-19.466-64.052-46.425c5.172-1.275,10.574-1.954,16.144-1.954
	c10.156,0,19.78,2.247,28.4,6.269c2.309,1.076,4.556,2.278,6.708,3.594c12.288-12.957,29.644-21.055,48.912-21.055
	c2.205,0,4.389,0.115,6.541,0.324c2.508-13.855,9.247-26.237,18.829-35.756C353.817,319.823,355.928,329.175,355.928,339.017z"/>
<path style="fill:#AD5F02;" d="M310.025,402.892c-0.042,0.01-0.094,0.031-0.136,0.052c-0.01,0.01-0.021,0.01-0.021,0.01
	c-6.698,2.236-13.866,3.448-21.326,3.448c-29.895,0-55.244-19.466-64.052-46.425c5.172-1.275,10.574-1.954,16.144-1.954
	c10.156,0,19.78,2.247,28.4,6.269C276.369,382.411,291.374,396.613,310.025,402.892z"/>
<g>
	<path style="fill:#363D3F;" d="M270.646,336.931c-3.067,0-5.978-1.811-7.234-4.817l-5.847-13.99
		c-1.67-3.994,0.215-8.584,4.209-10.253c3.989-1.671,8.583,0.215,10.253,4.209l5.847,13.99c1.67,3.994-0.215,8.584-4.209,10.253
		C272.678,336.736,271.654,336.931,270.646,336.931z"/>
	<path style="fill:#363D3F;" d="M305.394,326.971c-3.067,0-5.978-1.811-7.234-4.817l-5.846-13.991
		c-1.67-3.994,0.215-8.584,4.209-10.253c3.99-1.667,8.584,0.216,10.253,4.21l5.846,13.991c1.67,3.994-0.215,8.584-4.209,10.253
		C307.425,326.776,306.402,326.971,305.394,326.971z"/>
</g>
<g>
</g>
<g>
</g>
<g>
</g>
<g>
</g>
<g>
</g>
<g>
</g>
<g>
</g>
<g>
</g>
<g>
</g>
<g>
</g>
<g>
</g>
<g>
</g>
<g>
</g>
<g>
</g>
<g>
</g>
</svg>
