<svg height="512pt" viewBox="-59 0 512 512.00064" width="512pt" xmlns="http://www.w3.org/2000/svg"><path d="m322.261719 74.40625-.015625.003906c-13.90625 3.050782-27.648438-5.75-30.703125-19.65625l-5.144531-23.433594c-3.054688-13.910156 5.75-27.664062 19.660156-30.710937l.019531-.003906c13.902344-3.050781 27.648437 5.75 30.703125 19.652343l5.144531 23.4375c3.050781 13.910157-5.75 27.664063-19.664062 30.710938zm0 0" fill="#fedfc5"/><path d="m341.929688 43.710938-5.148438-23.453126c-3.054688-13.902343-16.808594-22.699218-30.71875-19.648437-.886719.191406-1.75.429687-2.589844.707031 8.347656 2.769532 15.0625 9.734375 17.085938 18.941406l5.148437 23.453126c2.855469 13.019531-4.683593 25.898437-17.078125 29.988281 4.257813 1.414062 8.933594 1.738281 13.632813.710937 13.914062-3.050781 22.71875-16.796875 19.667969-30.699218zm0 0" fill="#fecbaa"/><path d="m394.230469 249.054688-35.917969 10.65625-35.921875-10.65625-12.800781-70.707032-4.082032-22.554687-.964843-5.355469-5.78125-18.675781-18.035157-10.765625 10.460938-31.613282c2.140625-6.46875 7.21875-11.554687 13.691406-13.714843l37.773438-6.855469c13.15625-2.378906 25.671875 6.585938 27.644531 19.804688zm0 0" fill="#25bed3"/><path d="m214.929688 105.789062 42.859374 76.898438 25.4375 7.289062 31.667969-48.582031-34.164062-20.398437-7.632813 22.472656c-.324218.960938-1.609375 1.125-2.167968.277344l-45.164063-68.675782-5.597656 4.425782c-7.960938 6.300781-10.175781 17.433594-5.238281 26.292968zm0 0" fill="#fedfc5"/><path d="m322.394531 249.054688h71.835938l-16.324219 235.429687-19.59375 4.394531-19.59375-4.394531zm0 0" fill="#7f7ce8"/><path d="m339.722656 132.121094-30.132812 46.226562-4.082032-22.554687 21.164063-32.460938c2.433594-3.605469 7.320313-4.550781 10.921875-2.128906 3.609375 2.433594 4.554688 7.320313 2.128906 10.917969zm0 0" fill="#11a6bf"/><path d="m313.890625 502.289062 24.828125-17.808593h39.1875v22.402343c0 2.824219-2.292969 5.117188-5.121094 5.117188h-54.902344c-5.898437 0-8.546874-6.441406-3.992187-9.710938zm0 0" fill="#4f7693"/><path d="m206.203125 376.351562 16.660156 14.078126 14.152344 11.953124-3.996094 40.125-15.148437-1.9375-11.75-1.5-42.796875-38.5c-22.390625-20.132812-14.449219-56.941406 14.246093-66.066406l52.523438-16.710937 15.84375-5.042969 3.792969 18.25-7.488281 18.898438-16.144532 8.09375-18.835937 9.433593c-3.453125 1.730469-4.007813 6.429688-1.058594 8.925781zm0 0" fill="#fd82ac"/><path d="m90.539062 449.628906h11.359376c4.324218 0 8.570312-1.464844 12.277343-4.238281l13.816407-10.332031c4.417968-3.308594 9.582031-4.742188 14.710937-4.085938l90.320313 11.53125v69.496094h-142.484376l-31.925781-33.320312zm0 0" fill="#badb47"/><path d="m134.800781 474.671875 40.597657 4.007813v33.320312h-40.597657" fill="#badb47"/><path d="m76.199219 478.679688h-53.675781c-12.4375 0-22.523438 10.082031-22.523438 22.523437v6.125c0 2.582031 2.09375 4.671875 4.671875 4.671875h89.378906c2.578125 0 4.671875-2.089844 4.671875-4.671875v-6.125c-.003906-12.441406-10.085937-22.523437-22.523437-22.523437zm0 0" fill="#e4f4ff"/><path d="m76.191406 478.679688h-53.660156c-12.445312 0-22.53125 10.078124-22.53125 22.515624v6.136719c0 .972657.300781 1.875.808594 2.621094 2.597656-9.570313 11.324218-16.617187 21.722656-16.617187h53.660156c10.398438 0 19.125 7.050781 21.722656 16.617187.507813-.746094.804688-1.648437.804688-2.621094v-6.136719c0-12.4375-10.085938-22.515624-22.527344-22.515624zm0 0" fill="#bddff4"/><path d="m64.496094 478.679688h-28.277344c-14.386719 0-26.046875-11.660157-26.046875-26.046876v-6.007812c0-14.382812 11.660156-26.046875 26.046875-26.046875h28.277344c14.382812 0 26.042968 11.664063 26.042968 26.046875v6.007812c0 14.386719-11.660156 26.046876-26.042968 26.046876zm0 0" fill="#fedfc5"/><path d="m64.484375 420.578125h-20.632813c14.390626 0 26.054688 11.660156 26.054688 26.039063v6.027343c0 14.378907-11.664062 26.035157-26.054688 26.035157h20.632813c14.390625 0 26.054687-11.65625 26.054687-26.035157v-6.027343c0-14.378907-11.664062-26.039063-26.054687-26.039063zm0 0" fill="#fecbaa"/><path d="m242.199219 512h-9.179688v-69.492188l7.996094-80.320312 3.789063-38.082031 11.078124-111.316407 17.457032 1.363282 18.476562 7.582031 6.925782 232.054687c.945312 31.863282-24.644532 58.210938-56.542969 58.210938zm0 0" fill="#fd82ac"/><path d="m222.863281 390.429688 14.152344 11.953124-3.996094 40.125-15.148437-1.9375zm0 0" fill="#fd6096"/><path d="m175.398438 478.679688 136.25 13.945312c4.308593.441406 8.097656 3.703125 9.949218 8.566406l4.109375 10.808594h-150.308593zm0 0" fill="#fedfc5"/><path d="m255.878906 212.785156 35.941406 8.945313 2.773438-28.496094-46.105469-13.210937c-2.625-.75-4.859375 2.019531-3.570312 4.421874zm0 0" fill="#4f7693"/><path d="m269.5625 344.089844-1.699219 6.300781c-.292969 3.679687-2.957031 6.71875-6.566406 7.484375l-20.28125 4.308594 3.785156-38.078125 17.273438-18.601563c3.367187-3.636718 7.886719 33.636719 7.488281 38.585938zm0 0" fill="#fd6096"/><path d="m245.933594 312.75 18.328125-19.746094c3.375-3.640625 9.453125-.972656 9.058593 3.972656l-3.753906 47.109376-27.328125 5.808593zm0 0" fill="#4f7693"/></svg>