<svg height="512pt" viewBox="0 -55 512 512" width="512pt" xmlns="http://www.w3.org/2000/svg"><path d="m309.175781 152.25-12.996093-23.636719c.429687-4.832031 1.292968-10.34375 2.871093-16.195312 4.6875-17.382813 16.652344-41.375 47.0625-56.917969 10.230469-5.230469 22.746094-1.175781 27.976563 9.054688 5.226562 10.21875 1.171875 22.746093-9.046875 27.976562-23.304688 11.902344-27.289063 31.988281-27.714844 42.152344zm0 0" fill="#4297d0"/><path d="m370.9375 60.011719c-2.898438.125-5.820312.863281-8.574219 2.265625-30.410156 15.542968-42.375 39.535156-47.0625 56.917968-1.582031 5.851563-2.445312 11.363282-2.871093 16.195313l6.070312 11.042969-9.324219 5.820312-12.996093-23.640625c.429687-4.832031 1.292968-10.34375 2.871093-16.195312 4.6875-17.382813 16.652344-41.375 47.0625-56.917969 8.546875-4.367188 18.671875-2.257812 24.824219 4.511719zm0 0" fill="#1876a9"/><path d="m510.109375 323.839844-8.921875 25.976562c-11.933594 32.945313-46.75 52.605469-82.800781 50.296875l-129.992188 1.152344c-27.652343-1.765625-53.945312-12.253906-74.820312-29.867187l-105.640625-82.71875c-9.535156-7.464844-15.03125-18.859376-15.03125-30.835938 0-1.121094.050781-2.253906.144531-3.386719.070313-.832031.101563-1.652343.101563-2.476562 0-14.5625-11.082032-27.140625-26.269532-29.230469-10.113281-1.40625-19.335937-6.570312-25.792968-14.484375l-31.738282-38.898437c-13.296875-16.269532-11.371094-39.691407 4.417969-53.738282l45.203125-36.292968 39.472656 21.398437zm0 0" fill="#e5e5e5"/><path d="m418.386719 400.113281-129.992188 1.152344c-27.652343-1.765625-53.945312-12.253906-74.820312-29.867187l-105.640625-82.71875c-9.535156-7.464844-15.03125-18.859376-15.03125-30.835938 0-1.121094.050781-2.253906.144531-3.386719.070313-.832031.101563-1.652343.101563-2.476562 0-14.5625-11.082032-27.140625-26.269532-29.230469-10.113281-1.40625-19.335937-6.570312-25.792968-14.484375l-31.738282-38.898437c-13.296875-16.269532-11.371094-39.691407 4.417969-53.738282l45.203125-36.292968 39.472656 21.398437-29.472656 56.105469s-28.035156 11.671875-6.363281 33.347656c15.273437 15.273438 94.117187 94.117188 139.355469 139.355469 20.898437 20.898437 47.429687 35.242187 76.355468 41.289062zm0 0" fill="#cbcbcb"/><path d="m512 311.03125c0 11.945312-5.011719 22.746094-13.109375 30.574219-8.097656 7.816406-19.285156 12.660156-31.644531 12.660156h-122.929688c-45.878906 0-89.875-17.652344-122.269531-49.046875l-110.464844-107.066406v-.011719l-56.988281-55.230469c-8.171875-7.914062-12.476562-18.140625-12.882812-28.496094-.539063-13.652343 6.125-26.644531 17.257812-35.078124l101.472656-76.773438c5.988282-5.777344 16.175782-1.078125 15.28125 7.058594-.414062 3.816406-.621094 7.601562-.621094 11.355468 0 22.183594 7.183594 43.078126 19.59375 60.347657 17.644532 24.554687 45.859376 41.789062 79.050782 45.074219l52.449218 5.1875c12.328126 1.21875 22.871094 9.097656 27.183594 20.324218l36 93.804688 1.40625 1.351562c7.734375 3.398438 22.796875 7.492188 64.277344 14.5625 27.339844 4.667969 53.546875 15.675782 56.9375 49.402344zm0 0" fill="#4297d0"/><path d="m111.582031 198.140625-56.988281-55.230469c-8.171875-7.914062-12.476562-18.140625-12.882812-28.496094-.539063-13.652343 6.125-26.644531 17.257812-35.078124l101.472656-76.773438c5.988282-5.777344 16.175782-1.078125 15.28125 7.058594-.414062 3.816406-.621094 7.601562-.621094 11.355468 0 22.183594 7.183594 43.078126 19.59375 60.347657 0 0-92.386718 52.976562-83.113281 116.816406zm0 0" fill="#1876a9"/><path d="m342.507812 209.199219-153.871093 63.632812-134.042969-129.929687c-8.179688-7.910156-12.476562-18.140625-12.878906-28.492188-.054688-1.3125-.042969-2.621094.039062-3.921875l260.648438 55.765625zm0 0" fill="#f2f2f2"/><path d="m455.058594 261.632812c-12.539063 25.003907-40.273438 38.496094-67.675782 32.9375l-27.269531-5.53125c-12.214843-2.484374-22.121093-11.363281-25.917969-23.234374l-44.003906-137.777344 36 3.566406c12.339844 1.214844 22.871094 9.09375 27.183594 20.324219l36.003906 93.800781 1.402344 1.351562c7.734375 3.398438 22.796875 7.496094 64.277344 14.5625zm0 0" fill="#fcb52f"/><path d="m135.210938 221.042969-23.628907-22.902344-56.980469-55.230469c-8.179687-7.914062-12.472656-18.140625-12.890624-28.496094-.53125-13.652343 6.125-26.644531 17.257812-35.078124l76.242188-57.675782s21.300781 35.980469 30.792968 79.746094c8.835938 40.703125 7.453125 88.148438-30.792968 119.636719zm0 0" fill="#fcb52f"/><path d="m111.582031 198.140625-56.980469-55.230469c-8.179687-7.914062-12.472656-18.140625-12.890624-28.496094-.53125-13.652343 6.125-26.644531 17.257812-35.078124l76.242188-57.675782s21.300781 35.980469 30.792968 79.746094c-26.257812 21.136719-60.222656 56.804688-54.421875 96.734375zm0 0" fill="#f99830"/><g fill="#e5e5e5"><path d="m341.867188 177.773438c-7.054688 0-13.449219-4.816407-15.15625-11.980469-1.996094-8.375 3.175781-16.785157 11.550781-18.785157l29.332031-6.992187c8.378906-2 16.789062 3.171875 18.785156 11.550781 2 8.375-3.171875 16.785156-11.550781 18.785156l-29.332031 6.996094c-1.214844.289063-2.433594.425782-3.628906.425782zm0 0"/><path d="m359.082031 231.839844c-7.050781 0-13.445312-4.820313-15.152343-11.980469-2-8.378906 3.175781-16.789063 11.550781-18.785156l29.332031-6.996094c8.375-2 16.789062 3.171875 18.785156 11.550781 2 8.378906-3.175781 16.789063-11.550781 18.785156l-29.332031 6.996094c-1.214844.289063-2.433594.429688-3.632813.429688zm0 0"/><path d="m138.257812 382.230469h-97.542968c-4.308594 0-7.796875-3.492188-7.796875-7.796875 0-4.308594 3.488281-7.796875 7.796875-7.796875h97.542968c4.304688 0 7.796876 3.488281 7.796876 7.796875 0 4.304687-3.492188 7.796875-7.796876 7.796875zm0 0"/><path d="m59.679688 307.714844h-51.882813c-4.308594 0-7.796875-3.488282-7.796875-7.796875 0-4.304688 3.488281-7.796875 7.796875-7.796875h51.882813c4.308593 0 7.796874 3.492187 7.796874 7.796875 0 4.308593-3.488281 7.796875-7.796874 7.796875zm0 0"/></g></svg>