<?xml version="1.0" encoding="iso-8859-1"?>
<!-- Generator: Adobe Illustrator 19.0.0, SVG Export Plug-In . SVG Version: 6.00 Build 0)  -->
<svg version="1.1" id="Capa_1" xmlns="http://www.w3.org/2000/svg" xmlns:xlink="http://www.w3.org/1999/xlink" x="0px" y="0px"
	 viewBox="0 0 512 512" style="enable-background:new 0 0 512 512;" xml:space="preserve">
<rect x="27.133" y="89.35" style="fill:#D6D6D2;" width="457.728" height="15.673"/>
<path style="fill:#F9DCA2;" d="M323.14,162.562l53.437-69.044l6.641-8.581c5.852-7.814,14.806-11.935,23.87-11.935
	c6.203,0,12.46,1.939,17.82,5.951c5.096,3.814,8.625,8.954,10.455,14.565c2.904,8.899,1.578,19.047-4.471,27.113l-96.535,155.255
	c-2.583,3.836-7.854-0.437-14.942,20.841c-9.064,27.212-34.739,45.414-63.422,45.414l0,0c-28.68,0-54.355-18.198-63.42-45.408
	c-7.09-21.28-12.358-17.011-14.941-20.847L81.093,120.631c-6.038-8.066-7.364-18.215-4.461-27.113
	c1.831-5.611,5.359-10.751,10.444-14.565c5.359-4.011,11.628-5.951,17.831-5.951c9.063,0,18.017,4.121,23.858,11.935l6.652,8.581
	l53.437,69.044"/>
<g>
	<path style="fill:#E5C691;" d="M202.44,173.011l78.08,69.241l109.641-138.285l6.641-8.581c5.852-7.814,14.806-11.935,23.87-11.935
		c3.574,0,7.16,0.667,10.588,1.979c-1.73-2.411-3.849-4.605-6.351-6.477c-5.359-4.011-11.617-5.951-17.82-5.951
		c-9.063,0-18.017,4.121-23.87,11.935l-6.641,8.581l-53.437,69.044H194.352L202.44,173.011z"/>
	<path style="fill:#E5C691;" d="M230.045,342.143h-34.21c10.209-36.456-13.865-59.81-18.201-66.257L81.095,120.635
		c-6.04-8.067-7.367-18.223-4.462-27.115c1.829-5.611,5.36-10.752,10.439-14.566c5.36-4.012,11.63-5.956,17.836-5.956
		c6.06,0,12.069,1.849,17.136,5.402c-0.251,0.178-0.512,0.366-0.763,0.554c-5.089,3.814-8.61,8.955-10.449,14.566
		c-2.905,8.892-1.578,19.048,4.462,27.115l89.872,133.413C209.502,260.495,240.253,305.686,230.045,342.143z"/>
</g>
<path style="fill:#C11133;" d="M314.222,336.952l0.721,5.977c-20.961,13.928-32.716,40.061-26.237,66.873
	c0.073,0.282,0.136,3.657,0.209,6.76c-10.93,1.358-21.922,2.027-32.914,2.027c-11.003,0-21.995-0.669-32.925-2.027
	c0.063-3.103,0.125-6.478,0.199-6.76c6.52-26.958-5.392-53.227-26.551-67.093l36.289-36.289L314.222,336.952z"/>
<path style="fill:#0387D8;" d="M334.357,275.886v69.026H177.633v-69.026c37.23-30.135,14.127-90.237,14.127-90.237h128.47
	C320.23,185.649,297.127,245.751,334.357,275.886z"/>
<path style="fill:#0271A8;" d="M239.807,344.912h-62.175c0,0-4.793-11.703,0.003-10.522v-58.504
	c37.23-30.135,14.127-90.237,14.127-90.237h20.647l19.56,12.319L239.807,344.912z"/>
<path style="fill:#D1AF7D;" d="M291.382,223.147v20.029c0,19.551-15.835,35.385-35.385,35.385
	c-19.533,0-35.385-15.835-35.385-35.385v-20.029"/>
<circle style="fill:#F9DCA2;" cx="256" cy="165.763" r="67.218"/>
<path style="fill:#E5C691;" d="M223.766,165.762c0-31.072,21.087-57.208,49.729-64.909c-5.58-1.5-11.441-2.313-17.494-2.313
	c-37.126,0-67.222,30.096-67.222,67.222s30.096,67.222,67.222,67.222c6.053,0,11.915-0.813,17.494-2.313
	C244.853,222.97,223.766,196.834,223.766,165.762z"/>
<g>
	<path style="fill:#F9DCA2;" d="M387.984,371.097l-13.73,97.593l-63.781,15.903l11.588-74.23
		c-10.94,2.769-22.006,4.838-33.144,6.196c-0.073-3.103-0.136-6.478-0.209-6.76c-8.244-34.105,13.009-67.103,45.181-75.285
		c4.942-1.264,10.136-1.933,15.527-1.933h5.089C375.059,332.582,390.847,350.753,387.984,371.097z"/>
	<path style="fill:#F9DCA2;" d="M189.945,410.364l12.564,80.506l-64.767-22.18l-13.73-97.593
		c-2.863-20.344,12.936-38.515,33.479-38.515h5.089c40.469,0,70.217,37.878,60.698,77.218c-0.073,0.282-0.136,3.657-0.199,6.76
		C211.95,415.202,200.874,413.133,189.945,410.364z"/>
</g>
<g>
	<path style="fill:#E5C691;" d="M330.759,354.601L307.726,502.2h20.376l19.178-125.647c1.039-6.802-2.177-13.549-8.114-17.027
		L330.759,354.601z"/>
	<path style="fill:#E5C691;" d="M147.442,371.097l17.251,106.538l-26.122-8.944l-13.73-97.593
		c-2.863-20.344,12.936-38.515,33.479-38.515h5.089c3.459,0,6.834,0.272,10.115,0.815
		C156.742,337.127,144.935,353.282,147.442,371.097z"/>
	<path style="fill:#E5C691;" d="M333.89,334.515l-9.529,61.137l-2.299,14.712c-10.94,2.769-22.006,4.838-33.144,6.196
		c-0.073-3.103-0.136-6.478-0.209-6.76C280.464,375.695,301.717,342.697,333.89,334.515z"/>
</g>
<g>
	<path style="fill:#E22342;" d="M110.011,502.2h94.264l-5.224-33.515h-60.479c-15.774,0-28.56,12.787-28.56,28.56v4.955H110.011z"/>
	<path style="fill:#E22342;" d="M401.989,502.2h-94.264l5.224-33.515h60.479c15.774,0,28.56,12.787,28.56,28.56v4.955H401.989z"/>
</g>
<g>
	<path style="fill:#455256;" d="M52.604,97.189V23.534c0-7.585-6.149-13.734-13.734-13.734H26.302H13.734
		C6.149,9.801,0,15.95,0,23.535V97.19v73.655c0,7.585,6.149,13.734,13.734,13.734h12.568H38.87c7.585,0,13.734-6.149,13.734-13.734
		V97.189z"/>
	<path style="fill:#455256;" d="M512,97.189V23.534c0-7.585-6.149-13.734-13.734-13.734h-12.568H473.13
		c-7.585,0-13.734,6.149-13.734,13.734v73.655v73.655c0,7.585,6.149,13.734,13.734,13.734h12.568h12.568
		c7.585,0,13.734-6.149,13.734-13.734L512,97.189L512,97.189z"/>
</g>
<g>
	<path style="fill:#313C3F;" d="M52.604,161.562v-23.016H26.302H0v23.016v9.282c0,7.585,6.149,13.734,13.734,13.734h12.568H38.87
		c7.585,0,13.734-6.149,13.734-13.734V161.562z"/>
	<path style="fill:#313C3F;" d="M512,161.562v-23.016h-26.302h-26.302v23.016v9.282c0,7.585,6.149,13.734,13.734,13.734h12.568
		h12.568c7.585,0,13.734-6.149,13.734-13.734L512,161.562L512,161.562z"/>
</g>
<path style="fill:#455256;" d="M316.74,197.356c0-0.899-0.021-1.776-0.052-2.644"/>
<path style="fill:#D67C05;" d="M323.221,165.754c0,3.218-0.23,6.374-0.669,9.467c-14.723-5.245-27.073-15.506-35.015-28.703
	c-9.404,5.005-20.135,7.847-31.535,7.847c-10.668,0-20.752-2.487-29.706-6.917c-0.616-0.293-1.223-0.606-1.829-0.93
	c-7.952,13.197-20.302,23.458-35.025,28.703c-0.439-3.093-0.669-6.248-0.669-9.467c0-37.125,30.104-67.218,67.229-67.218
	c5.987,0,11.786,0.784,17.314,2.257C302.052,108.42,323.221,134.616,323.221,165.754z"/>
<path style="fill:#AD5F02;" d="M273.495,100.855c-22.789,6.123-40.793,23.918-47.198,46.592c-0.616-0.293-1.223-0.606-1.829-0.93
	c-7.952,13.197-20.302,23.458-35.025,28.703c-0.439-3.093-0.669-6.248-0.669-9.467c0-37.125,30.104-67.218,67.229-67.218
	c5.987,0,11.786,0.784,17.314,2.257C273.38,100.824,273.442,100.845,273.495,100.855z"/>
<g>
	<path style="fill:#363D3F;" d="M275.231,192.883c-4.329,0-7.837-3.509-7.837-7.837v-8.768c0-4.328,3.508-7.837,7.837-7.837
		c4.329,0,7.837,3.509,7.837,7.837v8.768C283.068,189.375,279.559,192.883,275.231,192.883z"/>
	<path style="fill:#363D3F;" d="M236.769,192.883c-4.329,0-7.837-3.509-7.837-7.837v-8.768c0-4.328,3.508-7.837,7.837-7.837
		c4.329,0,7.837,3.509,7.837,7.837v8.768C244.605,189.375,241.098,192.883,236.769,192.883z"/>
</g>
<g>
	<path style="fill:#C11133;" d="M162.256,468.685h-23.685c-15.774,0-28.56,12.786-28.56,28.56v4.954h23.685v-4.954
		C133.695,481.473,146.482,468.685,162.256,468.685z"/>
	<polygon style="fill:#C11133;" points="312.95,468.685 307.726,502.2 330.713,502.2 335.938,468.685 	"/>
</g>
<g>
	<path style="fill:#E5C691;" d="M148.755,110.748c-1.975,5.433-6.175,10.7-13.991,14.566c-0.825,0.408-1.693,0.596-2.55,0.596
		c-2.111,0-4.148-1.17-5.151-3.197c-1.411-2.842-0.24-6.29,2.602-7.701c11.065-5.475,9.477-14.514,8.119-18.432L148.755,110.748z"/>
	<path style="fill:#E5C691;" d="M363.736,110.748c1.975,5.433,6.175,10.7,13.991,14.566c0.825,0.408,1.693,0.596,2.55,0.596
		c2.111,0,4.148-1.17,5.151-3.197c1.411-2.842,0.24-6.29-2.602-7.701c-11.065-5.475-9.477-14.514-8.119-18.432L363.736,110.748z"/>
</g>
<g>
	<path style="fill:#D6D6D2;" d="M132.528,105.025h58.34V89.352h-58.34c-4.328,0-7.837,3.509-7.837,7.837l0,0
		C124.691,101.517,128.2,105.025,132.528,105.025z"/>
	<path style="fill:#D6D6D2;" d="M379.472,105.025h-58.34V89.352h58.34c4.328,0,7.837,3.509,7.837,7.837l0,0
		C387.309,101.517,383.8,105.025,379.472,105.025z"/>
</g>
<g>
</g>
<g>
</g>
<g>
</g>
<g>
</g>
<g>
</g>
<g>
</g>
<g>
</g>
<g>
</g>
<g>
</g>
<g>
</g>
<g>
</g>
<g>
</g>
<g>
</g>
<g>
</g>
<g>
</g>
</svg>
